<svg xmlns="http://www.w3.org/2000/svg" viewBox="0 0 64 64">
  <rect width="64" height="64" rx="14" fill="#1a3a6b"/>
  <path d="M15 19c0-2.2 1.8-4 4-4h11c2.4 0 4.6 1 6 2.7 1.4-1.7 3.6-2.7 6-2.7h3c2.2 0 4 1.8 4 4v27c0 1.1-.9 2-2 2h-8.5c-2.4 0-4.6 1-6 2.7-.8.9-2.2.9-3 0-1.4-1.7-3.6-2.7-6-2.7H17c-1.1 0-2-.9-2-2V19z" fill="#ffffff"/>
  <path d="M20 21h9c2.8 0 5 2.2 5 5v18.8c-1.5-.8-3.2-1.3-5-1.3h-9V21z" fill="#e8f0fb"/>
  <path d="M38 26c0-2.8 2.2-5 5-5h1v22.5h-1c-1.8 0-3.5.4-5 1.3V26z" fill="#e8f0fb"/>
  <path d="M26 18h8v31h-8c2.2.4 4.2 1.4 6 3 1.8-1.6 3.8-2.6 6-3V18h-4c-1.2-1.9-3.3-3-5.7-3H26v3z" fill="#e8af30"/>
  <path d="M22 28h7M22 34h7M41 28h2M41 34h2" stroke="#1a3a6b" stroke-width="3" stroke-linecap="round"/>
</svg>
